<svg xmlns="http://www.w3.org/2000/svg" version="1.1" xmlns:xlink="http://www.w3.org/1999/xlink" xmlns:svgjs="http://svgjs.com/svgjs" width="1440" height="560" preserveAspectRatio="none" viewBox="0 0 1440 560"><g mask="url(&quot;#SvgjsMask1000&quot;)" fill="none"><rect width="1440" height="560" x="0" y="0" fill="#0e2a47"></rect><path d="M 0,169 C 57.6,146.8 172.8,53.6 288,58 C 403.2,62.4 460.8,185.8 576,191 C 691.2,196.2 748.8,67.6 864,84 C 979.2,100.4 1036.8,277 1152,273 C 1267.2,269 1382.4,105.8 1440,64L1440 560L0 560z" fill="#184a7e"></path><path d="M 0,293 C 96,328.6 288,449.6 480,471 C 672,492.4 768,396.8 960,400 C 1152,403.2 1344,469.6 1440,487L1440 560L0 560z" fill="#2264ab"></path></g><defs><mask id="SvgjsMask1000"><rect width="1440" height="560" fill="#ffffff"></rect></mask></defs></svg>